<svg xmlns="http://www.w3.org/2000/svg" xmlns:xlink="http://www.w3.org/1999/xlink" viewBox="0 0 792 172"><path d="M 248.984 63.32 C 248.101 63.287 246.852 63.759 246.207 64.365 C 245.563 64.974 244.314 65.447 243.432 65.416 L 237.856 65.219 L 257.328 45.606 C 258.243 44.682 258.462 43.267 257.87 42.105 C 257.277 40.943 256.009 40.301 254.733 40.516 L 215.078 80.456 C 215.078 80.456 213.162 77.847 216.537 74.215 C 217.496 73.18 221.112 69.511 225.79 64.792 L 196.634 63.765 L 197.325 43.742 C 197.325 43.742 190.448 49.192 190.086 59.604 C 189.968 63.023 189.545 72.109 189.409 79.178 C 189.315 84.036 187.655 89.153 186.198 91.15 C 189.267 90.451 192.402 90.097 195.548 90.094 L 204.674 90.094 C 225.65 90.714 232.03 86.122 239.539 79.672 C 244.075 75.772 256.483 63.585 256.483 63.585 Z M 179.357 93.001 L 179.449 90.333 C 168.808 94.403 155.365 96.24 139.326 95.674 C 123.59 95.12 109.153 93.555 97.952 89.976 C 101.974 94.61 105.155 99.925 107.351 105.675 C 111.79 106.318 116.485 106.917 121.452 106.917 C 163.402 106.917 178.954 93.298 179.357 93.001 M 75.436 117.078 C 75.685 116.935 81.376 113.653 83.331 112.453 C 88.9 109.04 91.73 106.849 91.985 105.756 C 92.036 105.571 92.006 105.373 91.9 105.213 C 91.633 104.815 91.002 103.88 81.979 108.818 C 79.86 109.977 73.759 113.564 73.501 113.715 C 74.258 114.758 74.914 115.882 75.436 117.078 M 69.641 109.807 C 76.096 98.425 76.151 96.41 75.354 95.945 C 74.554 95.479 72.858 96.536 66.331 107.85 C 67.501 108.38 68.611 109.036 69.641 109.807 M 58.186 119.517 C 56.116 119.875 54.493 121.512 54.137 123.603 C 53.864 125.209 54.381 126.849 55.523 128 C 56.664 129.151 58.289 129.671 59.878 129.392 C 61.951 129.03 63.571 127.386 63.919 125.291 C 64.186 123.69 63.668 122.057 62.529 120.91 C 61.391 119.763 59.773 119.244 58.188 119.517 M 54.382 136.084 C 50.566 133.698 48.262 129.651 48.262 125.185 C 48.262 118.121 54.053 112.372 61.171 112.372 C 61.64 112.372 62.653 112.455 62.669 112.459 C 63.156 112.532 63.495 111.835 62.791 111.599 C 61.569 111.19 60.289 111.045 59.025 111.045 C 51.696 111.052 45.756 117.052 45.747 124.455 C 45.747 129.85 48.895 134.693 53.808 136.785 C 54.529 137.092 54.793 136.343 54.382 136.084 M 59.127 106.308 C 59.756 106.308 60.374 106.355 60.986 106.422 L 60.986 103.355 C 60.989 100.82 60.995 96.582 60.79 92.945 C 60.45 86.908 59.762 86.076 59.067 86.076 C 58.373 86.076 57.683 86.918 57.342 93.024 C 57.136 96.679 57.142 100.898 57.143 103.419 L 57.143 106.44 C 57.796 106.363 58.453 106.308 59.127 106.308 M 104.523 112.449 C 111.962 143.691 89.227 171.73 59.064 171.73 C 29.338 171.73 17.651 146.934 17.651 146.934 C 23.903 144.593 30.384 166.222 59.037 166.222 C 76.207 166.222 90.979 155.623 97.246 140.571 C 99.432 135.624 100.713 128.946 100.658 124.38 C 100.6 119.813 99.822 117.01 99.587 116.324 C 99.267 115.393 98.82 114.895 98.018 115.044 C 97.218 115.199 96.67 115.95 96.762 116.769 C 96.842 117.599 97.651 122.826 94.987 130.708 L 76.849 126.074 C 76.651 128.08 76.117 130.037 75.272 131.863 C 79.666 134.548 84.398 137.716 83.826 138.719 C 83.249 139.723 78.179 137.169 73.671 134.662 C 72.486 136.359 71.02 137.836 69.337 139.028 L 73.87 146.957 C 76.019 150.715 79.41 156.425 77.89 157.317 C 76.366 158.206 73.218 152.461 71.02 148.619 L 66.478 140.674 C 64.656 141.512 62.706 142.031 60.712 142.209 L 60.712 151.41 C 60.712 155.75 60.821 162.407 59.064 162.411 C 57.304 162.411 57.419 155.847 57.419 151.41 L 57.419 142.205 C 55.431 142.011 53.49 141.478 51.68 140.627 L 47.109 148.619 C 44.961 152.378 41.762 158.2 40.237 157.315 C 38.715 156.427 42.066 150.8 44.263 146.957 C 44.364 146.778 46.386 143.237 48.832 138.964 C 47.187 137.785 45.752 136.334 44.586 134.672 C 44.221 134.884 41.689 136.37 40.486 137.04 C 37.411 138.757 34.312 140.218 33.681 139.113 C 33.035 137.985 35.915 135.974 38.998 134.108 C 40.123 133.428 42.578 132.006 42.947 131.792 C 41.873 129.443 41.316 126.887 41.314 124.3 C 41.315 117.142 45.518 110.665 52.016 107.807 L 50.599 105.205 C 49.333 102.988 47.243 99.32 45.277 96.293 C 41.991 91.23 40.979 90.853 40.381 91.206 C 40.031 91.409 39.302 91.836 41.838 97.108 C 42.224 97.907 44.533 102.345 44.533 102.345 C 44.533 102.345 36.95 98.487 26.215 97.09 C 22.658 100.855 18.896 106.048 16.601 113.427 C 15.744 116.187 15.435 119.477 12.31 119.695 C 12.31 99.982 35.234 71.362 68.88 78.011 C 86.36 81.465 100.357 94.96 104.523 112.449 M 125.629 116.073 C 119.878 115.87 114.68 115.335 109.946 114.541 C 110.558 117.786 110.865 121.082 110.864 124.385 C 110.865 127.299 110.625 130.208 110.147 133.082 C 116.718 133.719 124.424 134.071 132.737 133.673 C 140.301 133.312 146.972 132.371 152.812 131.077 C 153.142 124.635 154.906 118.351 157.972 112.693 C 149.307 115.258 138.624 116.533 125.629 116.073 M 142.718 38.797 L 142.871 34.335 C 138.402 34.076 133.931 33.864 129.457 33.697 C 125.227 33.549 119.57 33.427 114.926 33.398 L 112.951 90.455 C 112.951 90.455 116.143 89.982 116.523 84.837 L 117.726 62.891 L 139.599 62.891 L 139.603 62.915 L 141.986 60.036 L 123.907 59.399 C 125.108 50.76 127.629 39.844 142.718 38.797 M 15.913 83.802 C 15.913 83.802 45.42 68.42 59.876 52.08 L 60.163 43.773 C 56.254 49.81 45.045 63.726 16.127 82.058 Z M 15.444 96.339 L 0.018 95.798 L 0.322 87.04 C 48.006 54.852 62.994 24.717 62.994 24.717 C 67.945 23.175 100.853 21.572 130.023 22.6 C 159.196 23.629 191.058 27.738 196.745 29.434 C 196.719 30.184 196.761 33.558 196.745 33.941 C 188.271 32.714 162.757 29.425 129.826 28.262 C 103.884 27.346 80.085 28.266 68.915 28.859 L 67.394 72.83 C 64.641 72.37 61.855 72.135 59.064 72.127 C 40.752 72.127 24.639 81.797 15.444 96.339 M 101.329 36.761 C 103.113 36.599 104.32 35.967 106.06 33.547 C 94.383 33.412 88.489 33.545 77.49 34.03 L 76.159 72.538 C 83.273 77.223 95.272 81.026 105.622 82.359 L 105.622 80.068 C 90.371 78.324 90.221 65.294 90.221 61.381 C 90.221 58.508 92.21 59.832 94.115 59.389 C 95.169 59.144 96.2 56.391 96.2 53.683 C 96.2 50.894 95.505 50.301 95.505 49.532 C 95.505 48.761 96.085 48.519 96.085 47.194 C 96.085 44.919 94.674 43.723 91.164 43.723 C 82.608 43.723 84.048 50.395 84.048 55.325 C 84.048 57.937 81.877 59.573 80.768 60.257 L 80.898 38.195 C 80.898 38.195 99.545 36.923 101.329 36.761 M 176.94 40.107 C 179.239 40.107 180.893 39.369 182.383 37.739 C 174.534 36.891 164.438 35.923 153.944 35.123 L 152.262 83.891 C 161.69 83.215 173.36 80.312 179.791 77.06 C 186.223 73.809 181.865 67.572 182.369 50.961 C 181.337 49.675 179.7 47.724 176.051 47.724 C 172.543 47.724 170.262 48.917 170.262 51.195 C 170.262 52.52 170.843 52.762 170.843 53.532 C 170.843 54.303 170.149 54.894 170.149 57.683 C 170.149 60.392 170.822 63.143 171.876 63.388 C 173.782 63.832 176.01 62.685 176.992 65.381 C 177.971 68.072 176.73 71.335 173.517 74.146 C 172.044 75.432 167.397 78.708 156.886 79.995 L 157.322 39.848 C 157.322 39.848 174.639 40.107 176.94 40.107 M 186.273 133.416 C 186.273 136.372 187.696 139.173 190.079 140.911 C 190.123 140.942 190.176 140.958 190.23 140.957 C 190.306 140.959 190.379 140.925 190.429 140.867 C 190.517 140.763 190.512 140.609 190.417 140.511 C 188.772 138.816 187.852 136.536 187.856 134.162 C 187.862 129.139 191.891 125.069 196.864 125.063 C 197.279 125.063 197.715 125.102 198.229 125.179 L 198.27 125.183 C 198.39 125.183 198.495 125.1 198.524 124.982 C 198.554 124.849 198.479 124.715 198.352 124.671 C 197.407 124.346 196.416 124.179 195.418 124.177 C 190.369 124.183 186.278 128.316 186.273 133.416 M 198.822 133.416 C 198.747 131.574 197.247 130.119 195.421 130.119 C 193.595 130.119 192.095 131.574 192.02 133.416 C 192.02 135.313 193.543 136.852 195.421 136.852 C 197.299 136.852 198.822 135.313 198.822 133.416 M 184.005 138.07 C 183.385 136.552 183.067 134.926 183.067 133.285 C 183.067 127.03 187.587 121.849 193.506 120.864 C 193.653 116.869 194.045 113.133 195.061 113.133 C 196.07 113.133 196.46 116.784 196.61 120.736 C 197.789 120.837 198.949 121.108 200.052 121.542 L 200.062 121.546 C 200.905 120.074 201.747 118.6 202.586 117.126 C 204.734 113.369 207.935 107.545 209.456 108.435 C 210.978 109.322 207.631 114.945 205.434 118.789 C 205.344 118.951 204.292 120.79 202.944 123.149 C 203.898 123.86 204.745 124.702 205.464 125.653 C 209.331 123.532 213.445 121.55 214.005 122.531 C 214.571 123.522 210.829 126.116 207.071 128.436 C 207.528 129.546 207.824 130.718 207.951 131.913 L 212.915 131.913 C 217.214 131.913 223.809 131.801 223.807 133.576 C 223.807 135.35 217.312 135.234 212.915 135.238 L 207.866 135.234 C 207.693 136.371 207.364 137.478 206.889 138.524 L 211.332 141.116 C 215.055 143.285 220.819 146.519 219.938 148.055 C 219.062 149.596 213.493 146.21 209.687 143.994 C 208.171 143.111 206.656 142.228 205.141 141.344 C 204.433 142.201 203.615 142.96 202.708 143.6 L 205.405 148.321 C 207.553 152.078 210.945 157.792 209.423 158.675 C 207.901 159.566 204.753 153.825 202.554 149.982 C 201.63 148.365 200.707 146.747 199.782 145.13 C 198.796 145.494 197.768 145.729 196.722 145.829 C 196.722 148.903 196.722 151.396 196.719 151.595 C 196.721 155.936 196.831 162.594 195.074 162.593 C 193.314 162.596 193.431 156.032 193.429 151.593 L 193.429 145.696 C 192.436 145.526 191.466 145.235 190.543 144.827 L 187.579 150.013 C 185.431 153.77 182.232 159.595 180.709 158.704 C 179.187 157.815 182.534 152.194 184.729 148.35 L 187.732 143.102 C 186.957 142.469 186.259 141.746 185.653 140.946 C 182.073 143.034 177.659 145.478 176.894 144.133 C 176.123 142.789 180.379 140.185 184.005 138.068 M 758.995 130.281 C 758.368 129.96 744.015 122.587 733.646 117.342 C 723.276 112.094 721.218 103.56 722.477 93.115 C 716.653 99.893 716.382 108.777 716.175 112.413 C 714.41 111.518 702.015 105.777 683.969 108.111 C 684.987 100.218 681.963 95.645 680.361 93.969 L 680.183 94.104 C 680.906 96.244 680.022 102.994 675.377 104.765 C 674.692 100.967 671.001 98.199 666.484 98.199 C 650.125 98.199 648.009 129.956 634.293 129.956 C 630.876 129.956 628.298 127.916 627.47 130.835 C 623.549 144.674 618.011 160.68 618.011 160.68 C 619.101 161.072 619.361 162.587 618.959 164.132 L 618.95 164.14 C 615.547 166.921 618.391 171.494 618.391 171.494 L 628.112 171.494 C 628.112 171.494 626.196 167.449 625.611 166.072 C 625.163 165.019 624.551 164.449 623.859 164.092 C 625.546 158.509 632.375 140.697 635.229 140.268 C 651.995 137.762 664.367 130.426 670.81 125.757 C 668.603 129.761 665.57 132.935 664.072 134.374 C 661.806 136.553 662.827 137.786 664.994 140.086 C 666.698 141.894 671.145 145.456 678.234 155.449 C 677.232 155.971 676.119 156.813 675.365 158.159 C 674.539 159.647 676.807 164.953 679.846 167.484 C 679.846 167.484 682.931 160.723 683.241 159.911 C 683.971 157.995 683.901 157.309 683.107 156.382 L 683.838 154.889 C 683.382 154.12 673.101 136.934 673.101 136.934 L 691.332 121.422 C 695.808 122.56 711.803 131.322 726.556 129.004 C 734.493 131.421 752.592 133.82 752.592 133.82 L 750.196 136.36 C 750.229 136.36 748.836 144.643 744.499 152.264 L 744.671 153.853 C 743.175 153.672 740.858 153.68 738.897 154.939 C 737.472 155.855 735.378 159.826 735.889 163.769 C 735.889 163.769 742.713 160.954 743.489 160.572 C 745.141 159.765 745.488 159.423 745.719 158.381 C 746.725 158.001 748.077 157.516 748.077 157.516 C 748.922 156.419 753.29 144.477 759.674 132.311 C 760.043 131.608 759.751 130.669 758.995 130.281 M 609.89 152.693 C 610.147 151.734 610.432 150.699 610.432 150.699 C 610.03 149.366 602.835 139.397 596.878 126.976 C 596.788 126.783 595.878 124.976 594.422 124.405 C 586.614 121.337 570.444 115.239 560.654 105.269 C 556.829 100.987 554.758 98.058 554.31 96.374 C 554.31 96.374 550.137 105.907 555.06 115.183 L 550.036 110.543 C 544.689 108.76 533.482 104.825 518.662 106.633 C 519.588 103.09 520.035 98.52 519.944 95.97 L 519.326 95.491 C 518.681 96.385 513.198 105.849 503.393 98.189 C 497.572 93.644 488.39 94.739 485.397 106.229 C 481.457 121.356 470.629 126.367 463.926 128.09 C 463.01 128.326 462.637 128.589 462.262 129.253 L 449.448 157.856 C 448.287 158.043 446.186 158.443 444.388 159.11 C 442.804 159.701 441.611 165.388 442.718 169.205 C 442.718 169.205 449.037 165.372 449.756 164.891 C 451.982 163.404 451.627 161.393 451.627 161.393 L 453.011 161.393 L 468.581 137.21 C 481.777 134.482 491.637 130.349 499.794 124.795 C 499.096 126.211 498.119 127.532 495.577 129.529 C 493.67 131.027 494.081 132.047 494.95 133.221 C 495.238 133.613 504.638 144.464 509.567 153.133 C 508.459 153.872 507.476 154.785 506.654 155.837 C 505.615 157.184 506.904 162.529 509.637 165.395 C 509.637 165.395 513.47 159.038 513.87 158.267 C 514.749 156.583 514.807 156.118 514.344 155.086 C 515.019 154.01 515.82 153.156 515.82 153.156 L 505.351 133.323 C 509.333 131.154 516.004 123.829 520.665 118.366 C 525.029 118.494 528.727 120.012 531.154 120.634 C 538.743 122.581 551.484 131.741 568.706 128.886 C 576.55 129.23 587.985 131.915 593.835 133.406 L 594.487 136.735 C 594.505 136.708 600.426 142.638 604.103 150.63 C 604.103 150.63 604.981 151.338 605.955 152.098 C 605.125 152.729 603.26 154.418 602.96 157.062 C 602.766 158.758 606.895 162.761 610.669 163.9 C 610.669 163.9 610.914 156.463 610.889 155.59 C 610.835 153.788 610.676 153.305 609.89 152.693 M 791.05 78.239 C 789.78 77.574 786.202 73.834 782.932 70.099 C 781.1 68.005 777.822 63.929 776.971 62.868 L 776.745 62.973 L 776.271 71.947 C 777.361 72.662 785.489 79.083 785.917 79.465 C 787.642 81.007 786.47 83.01 784.479 82.305 C 782.49 81.598 781.132 85.809 781.132 85.809 C 781.637 86.649 782.203 88.566 784.412 88.533 C 786.045 88.506 786.667 87.613 786.667 87.613 L 789.916 87.297 C 789.916 87.297 790.184 84.449 790.891 83.4 C 792.565 80.912 791.05 78.239 791.05 78.239 M 764.161 78.855 C 765.094 80.636 765.968 82.286 766.238 82.691 C 766.88 83.667 780.591 84.781 780.591 84.781 L 768.837 77.974 L 765.48 68.348 L 765.48 68.318 L 765.469 68.321 L 765.463 68.306 C 765.452 68.314 765.444 68.325 765.433 68.331 C 753.837 71.509 735.403 85.915 730.383 92.076 C 745.686 98.066 742.028 117.91 755.364 120.846 C 761.47 122.191 767.835 120.92 772.121 120.134 L 771.155 121.996 C 771.183 121.984 772.034 129.767 770.137 137.84 L 770.065 140.196 C 770.065 140.196 767.661 139.101 765.545 140.148 C 764.029 140.898 761.342 144.446 761.263 148.425 C 761.263 148.425 768.428 146.668 769.25 146.411 C 771.189 145.804 771.468 145.522 771.904 144.241 C 772.082 144.039 774.733 142.13 774.733 142.13 C 775.23 140.89 775.959 128.372 778.921 115.471 C 779.036 114.976 778.728 114.226 778.237 114.128 L 750.988 108.035 C 750.988 108.035 755.157 83.072 764.163 78.855 M 264.892 108.082 C 280.697 111.279 287.681 100.469 287.681 100.469 C 283.158 102.911 272.595 104.674 271.488 103.432 C 288.913 90.246 305.62 91.956 311.118 92.63 L 313.306 90.069 C 308.804 87.577 303.004 84.583 294.049 84.583 C 277.87 84.583 271.92 93.996 260.388 94.173 C 253.245 94.285 248.116 88.556 247.881 88.436 L 247.311 88.971 C 247.317 89.024 249.879 105.045 264.892 108.082 M 433.866 114.756 C 433.89 114.261 433.584 113.574 432.38 113.574 L 403.247 113.574 C 401.574 120.586 407.235 125.641 411.161 125.27 C 416.655 124.752 423.158 122.347 427.838 120.373 L 427.44 122.415 C 427.467 122.401 429.564 132.75 429.574 140.853 C 427.905 140.642 426.211 140.953 424.722 141.744 C 423.227 142.534 421.217 146.639 421.739 150.581 C 421.739 150.581 428.553 147.745 429.331 147.365 C 431.154 146.465 431.672 145.922 431.624 144.282 C 432.605 142.965 434.3 141.307 434.3 141.307 C 434.571 140.019 433.171 127.768 433.866 114.756 M 412.467 163.502 C 409.813 160.076 406.475 154.004 404.857 149.268 C 396.701 133.704 400.032 114.281 400.032 114.281 C 398.009 114.281 394.57 114.711 392.008 119.087 C 386.517 107.203 379.621 100.668 364.036 100.668 C 363.185 100.668 367.306 104.976 373.717 113.243 C 360.98 108.692 345.282 107.981 336.764 108.665 C 338.964 104.666 339.971 101.371 340.199 99.532 C 340.199 99.532 335.259 105.545 329.577 105.545 C 317.154 105.545 325.519 93.507 319.992 93.507 C 312.681 93.507 306.496 100.133 305.955 108.694 C 304.807 126.705 294.044 129.427 288.283 129.427 C 286.381 129.427 285.464 129.891 284.51 130.903 C 283.527 131.946 268.182 150.883 263.075 156.989 C 261.779 156.989 259.996 157.002 258.082 157.051 C 254.974 157.13 253.865 162.749 253.955 166.728 C 253.955 166.728 260.583 164.565 261.396 164.271 C 263.092 163.661 263.804 162.432 263.867 161.484 L 265.269 161.633 C 267.914 159.189 284.08 143.055 287.274 141.848 C 303.224 138.479 316.293 131.602 324.911 126.021 C 324.039 129.657 322.484 132.81 320.604 134.683 C 318.252 137.03 319.082 138.222 320.944 140.038 C 323.811 142.833 330.87 149.563 337.172 157.748 C 336.388 159.242 335.904 160.878 335.747 162.562 C 335.602 164.262 339.572 168.032 343.408 168.931 C 343.408 168.931 343.186 161.488 343.106 160.622 C 342.926 158.691 342.724 158.289 341.727 157.661 C 342.01 157.064 342.333 156.488 342.695 155.936 L 330.363 137.662 C 334.458 134.49 340.958 124.126 344.605 117.989 C 355.977 120.827 370.682 130.613 385.027 129.052 C 385.027 129.052 392.977 141.678 396.976 149.268 L 396.938 149.268 C 400.533 152.998 403.876 159.865 405.578 163.305 C 405.578 163.305 407.395 163.184 408.673 165.083 C 408.638 165.295 408.568 165.942 408.568 167.623 C 408.568 169.817 409.572 171.457 409.602 171.494 L 419.935 171.494 C 419.002 170.242 415.772 166.019 415.29 165.451 C 414.288 164.267 413.416 163.674 412.467 163.502 M 583.885 163.508 C 581.221 160.074 577.857 153.962 576.231 149.2 C 575.67 148.309 575.129 147.406 574.609 146.49 C 572.215 142.25 571.507 139.536 569.497 133.36 C 567.355 134.745 559.872 134.569 555.043 133.611 C 555.293 133.851 563.993 143.179 568.287 149.2 C 571.888 152.936 574.898 159.11 577.008 163.031 C 577.008 163.031 578.291 162.923 579.484 164.486 C 579.473 164.544 578.748 167.963 580.708 171.484 C 580.722 171.507 591.016 171.484 591.016 171.484 C 589.855 169.572 587.759 166.728 587.413 166.226 C 586.501 164.913 585.507 163.891 583.885 163.508 M 515.566 80.454 C 497.703 80.454 494.81 88.564 494.81 88.564 C 500.484 86.843 508.073 85.564 516.038 85.564 C 524.447 85.564 531.592 86.959 537.999 86.959 C 546.236 86.959 549.036 84.432 550.25 81.859 C 548.261 82.326 546.077 83.184 540.967 83.184 C 531.449 83.184 525.086 80.454 515.566 80.454 M 503.177 65.652 C 523.302 62.333 536.477 68.08 541.241 70.176 L 541.629 69.598 C 531.87 64.147 519.98 58.379 497.287 63.629 C 472.103 69.453 470.724 76.004 437.65 78.988 L 438.475 82.096 C 472.995 79.46 479.736 69.519 503.177 65.652 M 541.715 74.171 C 541.715 74.171 547.661 80.325 555.112 78.82 C 560.767 77.679 569.241 70.097 580.073 61.769 C 580.073 61.769 578.01 58.978 572.85 58.978 C 565.5 58.978 553.796 65.675 543.251 65.124 C 549.627 70.533 556.657 72.258 558.78 71.8 C 554.653 77.128 541.715 74.169 541.715 74.169 M 587.021 59.617 C 590.609 59.617 592.896 58.423 596.428 58.423 C 601.697 58.423 604.958 60.471 604.958 60.471 C 604.956 59.752 604.627 56.441 603.736 54.176 C 603.048 52.423 601.747 51.413 600.8 53.698 C 600.427 54.606 600.079 55.495 599.789 56.138 C 599.2 57.452 597.798 57.483 598.029 56.625 C 598.251 55.81 600.395 51.641 590.232 51.641 C 581.278 51.641 576.64 54.255 572.433 52.296 C 577.966 58.518 583.582 59.617 587.019 59.617 M 443.468 108.928 C 461.487 112.588 468.77 97.502 482.025 92.897 C 475.225 89.392 465.209 94.691 465.209 94.691 C 479.964 85.429 485.894 87.733 492.836 89.166 C 491.433 87.422 488.813 85.245 484.529 84.374 C 465.918 80.592 459.76 96.175 439.05 92.352 C 439.05 92.352 442.047 99.391 449.309 99.816 C 449.309 99.816 438.886 103.399 430.718 100.917 C 430.718 100.917 434.508 107.108 443.468 108.928 M 401.729 61.813 C 415.626 58.265 422.351 54.274 430.498 60.226 C 430.498 60.226 430.59 55.02 429.031 52.615 C 428.538 51.856 427.118 51.645 425.388 55.141 C 424.778 56.372 424.068 55.933 424.011 55.402 C 423.819 53.752 424.401 50.48 420.044 50.36 C 411.176 50.115 398.166 58.373 386.905 51.16 C 386.905 51.16 392.222 61.553 401.727 61.813 M 419.742 65.652 C 399.164 75.129 393.015 88.944 389.483 95.547 C 400.811 101.394 403.247 112.044 403.247 112.044 C 403.247 112.044 409.415 84.828 414.798 79.104 C 417.267 81.331 425.269 86.472 425.269 86.472 L 418.312 75.345 L 419.734 65.669 Z M 432.118 84.382 C 432.896 86.462 431.018 87.627 429.651 86.134 C 428.279 84.64 425.271 87.582 425.271 87.582 C 425.325 88.521 424.956 90.395 426.839 91.365 C 428.228 92.078 429.148 91.602 429.148 91.602 L 432.034 92.8 C 432.034 92.8 433.52 90.519 434.577 89.951 C 437.094 88.602 436.993 85.658 436.993 85.658 C 435.713 83.794 432.829 72.098 432.135 67.39 C 431.983 66.401 431.758 65.424 431.462 64.468 C 431.462 64.468 431.19 64.437 431.188 64.446 C 429.871 66.926 428.541 69.4 427.199 71.866 C 427.803 72.963 431.923 83.866 432.118 84.384 M 612.497 82.927 C 613.717 84.814 612.115 86.383 610.432 85.206 C 608.752 84.034 606.412 87.617 606.412 87.617 C 606.67 88.533 606.714 90.47 608.789 91.011 C 610.319 91.409 611.128 90.737 611.128 90.737 L 614.245 91.284 C 614.245 91.284 615.22 88.691 616.144 87.893 C 618.343 86 617.603 83.109 617.603 83.109 C 615.93 81.544 610.527 70.601 608.816 66.096 C 608.45 65.149 608.016 64.231 607.515 63.349 L 607.238 63.382 C 605.606 69.214 604.903 71.623 604.903 71.623 C 605.74 72.575 612.193 82.458 612.497 82.927 M 748.165 62.393 C 752.625 62.748 754.675 61.085 761.323 59.175 C 768.581 57.087 775.119 60.569 775.119 60.569 C 775.121 59.754 773.781 55.466 772.633 53.399 C 772.084 52.406 770.969 52.41 770.545 53.469 C 770.247 54.218 769.459 56.613 769.413 56.737 C 769.16 57.413 768.6 57.297 768.359 56.799 C 767.527 55.093 766.464 50.932 761.828 51.645 C 736.342 55.572 732.919 51.45 732.919 51.45 C 736.406 56.383 742.508 62.016 748.165 62.393 M 720.66 78.78 C 727.455 78.127 742.994 66.772 747.628 65.528 C 742.187 65.368 740.705 63.954 735.782 64.246 C 723.412 64.974 720.752 74.677 707.304 70.908 C 708.313 73.394 715.081 79.313 720.66 78.78 M 592.877 79.535 L 593.279 80.843 C 593.634 81.923 606.169 86.514 606.169 86.514 L 596.908 77.107 L 596.283 68.219 L 596.363 67.122 C 584.692 70.498 576.065 85.197 563.92 92.141 C 577.327 98.902 581.404 110.236 583.94 114.412 C 583.94 114.412 586.556 111.136 586.83 102.88 C 587.174 92.562 582.976 86.8 592.877 79.535 M 658.953 63.788 C 685.044 67.408 706.076 80.317 712.855 84.89 C 705.485 87.565 694.763 81.78 681.984 83.196 C 672.126 84.287 666.841 87.451 664.311 89.188 L 664.96 89.81 C 670.651 88.311 675.935 87.337 686.628 87.36 C 695.176 87.38 701.61 88.964 705.852 89.369 C 716.525 90.387 717.024 84.54 717.024 84.54 C 717.024 84.54 690.151 64.769 659.446 60.51 C 627.561 56.084 612.005 62.721 612.005 62.951 L 612.92 65.393 C 612.92 65.161 627.062 59.364 658.953 63.786 M 660.989 90.482 L 660.98 89.806 C 658.008 89.137 654.587 88.531 650.599 88.531 C 626.38 88.531 624.85 105.966 604.325 105.966 C 602.392 105.966 598.091 105.292 598.045 105.287 L 597.373 105.916 C 597.402 105.952 597.432 105.985 597.465 106.017 C 600.468 108.868 608.647 114.897 621.585 115.098 C 637.604 115.349 646.336 102.795 646.527 101.966 C 642.913 104.931 628.21 111.026 626.529 109.851 C 639.054 95.528 655.663 91.456 660.989 90.482 M 382.248 77.972 C 386.211 73.701 391.881 68.163 398.577 64.709 C 398.028 63.096 394.046 61.533 389.437 61.533 C 375.52 61.533 372.625 75.724 354.967 71.028 C 360.993 78.971 368.865 81.811 382.246 77.972 M 207.836 49.29 L 218.938 49.634 L 227.85 59.099 C 227.85 59.099 233.013 48.666 234.044 46.514 C 235.731 42.991 235.45 39.421 227.92 38.606 C 225.861 38.382 223.407 38.272 221.548 38.208 L 224.805 32.498 L 229.462 35.463 L 246.202 36.415 C 247.117 36.446 247.885 35.723 247.919 34.799 L 247.988 32.718 C 267.22 25.163 306.591 82.856 349.331 71.285 L 348.757 70.885 C 303.321 73.972 268.927 23.774 247.47 30.908 L 247.47 30.916 L 244.28 30.806 C 241.616 30.806 240.13 32.113 240.13 32.113 L 235.396 31.237 L 233.243 28.945 L 233.241 28.944 L 237.085 29.079 L 243.419 27.182 L 244.513 28.325 C 246.944 27.539 249.644 27.798 249.644 27.798 C 251.327 27.856 252.742 26.529 252.8 24.827 L 252.844 23.568 C 287.308 18.758 335.385 67.524 360.408 67.524 L 361.339 66.56 C 341.107 66.56 287.863 14.547 251.184 22.221 L 247.586 22.096 C 246.731 22.065 245.546 24.236 242.25 24.174 C 238.957 24.116 230.062 21.8 230.062 21.8 C 230.062 21.8 228.726 18.951 228.492 18.391 C 228.492 18.391 228.886 16.957 229.546 16.981 L 232.139 17.073 C 232.69 17.077 232.914 16.832 233.176 16.131 C 233.329 15.733 233.736 14.616 234.121 12.963 C 234.503 11.309 234.522 10.084 234.522 10.084 L 240.021 10.133 C 240.51 10.138 240.724 9.878 240.617 9.518 C 240.267 8.338 239.116 6.196 234.669 6.014 L 234.972 1.042 C 233.099 0.455 224.924 -0.316 223.726 3.961 C 225.799 3.053 232.271 2.048 232.187 4.309 L 232.126 6.097 C 225.451 5.643 217.457 6.389 217.094 8.371 C 216.807 9.916 221.906 10.986 223.65 11.34 C 223.65 11.34 222.678 14.436 220.984 14.813 L 224.872 18.389 C 224.881 18.431 227.358 23.392 229.389 27.458 C 230.804 30.288 219.834 22.631 218.951 23.305 C 218.146 23.913 220.295 26.811 220.812 28.152 C 221.473 29.606 220.735 29.743 220.395 29.994 C 220.066 30.242 213.323 33.452 210.446 36.512 L 206.289 36.365 C 207.866 32.745 210.328 27.234 211.362 25.667 C 212.942 23.278 209.71 24.186 207.71 27.027 C 206.916 28.152 203.311 33.155 201.322 36.191 L 201.119 42.017 C 200.986 45.899 203.993 49.156 207.836 49.292 M 178.212 5.891 L 156.348 5.122 C 154.4 1.348 150.179 -0.627 146.069 0.314 C 141.959 1.254 138.992 4.873 138.844 9.126 L 138.842 9.229 C 151.923 9.877 164.978 10.979 177.984 12.532 Z M 98.602 16.588 C 101.438 16.569 103.178 18.497 102.998 20.305 L 105.708 20.278 L 105.846 16.585 C 122.458 16.677 142.923 17.38 153.153 18.246 C 156.498 18.526 156.959 20.85 156.924 22.275 L 159.625 22.507 L 159.764 18.709 C 172.118 19.613 184.449 20.81 196.747 22.298 C 196.786 21.153 196.709 20.002 196.747 18.856 C 189.222 17.707 164.383 13.795 131.054 12.601 C 96.487 11.371 71.73 13.517 62.711 14.156 C 62.672 15.298 62.751 16.44 62.711 17.583 C 74.885 16.955 86.119 16.675 98.602 16.588 M 355.831 82.736 C 341.389 79.392 322.405 80.109 314.687 90.465 L 315.326 90.76 C 319.399 87.924 334.316 83.107 354.827 86.843 C 369.903 89.586 378.771 81.811 378.771 81.811 C 378.678 81.849 367.886 85.527 355.831 82.738 M 133.774 8.997 L 134.042 1.241 L 113.737 0.526 C 111.925 0.464 110.309 1.671 109.837 3.439 L 85.855 2.589 C 84.819 2.553 83.811 2.934 83.053 3.648 C 82.294 4.362 81.848 5.352 81.812 6.399 L 81.717 9.213 C 89.477 8.831 98.996 8.52 110.088 8.52 C 118.784 8.52 132.915 8.964 133.774 8.997 M 233.405 137.334 C 231.196 158.418 212.418 173.754 191.542 171.525 C 183.701 170.686 176.223 167.771 167.209 160.247 C 170.265 156.301 174.264 164.677 192.075 166.441 C 209.907 168.206 225.977 154.738 227.863 136.739 C 229.749 118.741 216.786 102.551 198.97 100.645 C 197.393 100.479 195.807 100.419 194.223 100.465 C 193.496 104.334 190.314 109.872 186.057 114.024 C 186.057 114.024 184.592 111.549 184.01 110.624 C 181.165 106.067 179.558 104.384 178.652 104.916 C 177.709 105.464 178.441 107.891 181.18 113.071 C 181.735 114.118 183.131 116.628 183.194 116.738 C 183.125 116.798 180.315 119.239 177.682 120.976 C 177.606 120.933 174.15 119.006 172.843 118.339 C 168.919 116.342 167.018 115.876 166.54 116.715 C 166.081 117.514 167.42 118.94 170.832 121.235 C 171.688 121.81 174.02 123.263 174.02 123.263 C 170.6 125.315 165.834 127.393 161.447 128.776 L 161.447 128.77 C 161 131.361 160.777 133.987 160.782 136.617 C 160.782 139.491 159.376 139.497 157.903 139.831 C 157.418 136.321 157.347 132.765 157.691 129.238 C 159.9 108.151 178.68 92.814 199.555 95.047 C 220.431 97.276 235.616 116.247 233.405 137.334" fill="rgb(255,255,255)"></path></svg>